<svg xmlns="http://www.w3.org/2000/svg" viewBox="0 0 24 24" width="100%" height="100%">
  <defs>
    <linearGradient id="glowGrad" x1="0%" y1="0%" x2="100%" y2="100%">
      <stop offset="0%" stop-color="#1c34bb" />
      <stop offset="100%" stop-color="#a3f96d" />
    </linearGradient>
  </defs>
  <!-- Border and Background -->
  <circle cx="12" cy="12" r="11" fill="#151827" stroke="url(#glowGrad)" stroke-width="1.5" />
  
  <!-- Groups3 Icon Silhouettes -->
  <!-- Left person silhouette -->
  <path d="M6 14.5c-1.4 0-2.5 1.1-2.5 2.5v1.5h4v-1.5c0-1.4-1.1-2.5-2.5-2.5z" fill="#ffffff" opacity="0.6" />
  <circle cx="6" cy="11.5" r="1.8" fill="#ffffff" opacity="0.6" />
  
  <!-- Right person silhouette -->
  <path d="M18 14.5c-1.4 0-2.5 1.1-2.5 2.5v1.5h4v-1.5c0-1.4-1.1-2.5-2.5-2.5z" fill="#ffffff" opacity="0.6" />
  <circle cx="18" cy="11.5" r="1.8" fill="#ffffff" opacity="0.6" />
  
  <!-- Center person silhouette (Active highlight) -->
  <path d="M12 12.5c-1.9 0-3.5 1.6-3.5 3.5v2h7v-2c0-1.9-1.6-3.5-3.5-3.5z" fill="#a3f96d" />
  <circle cx="12" cy="9" r="2.5" fill="#a3f96d" />
</svg>